<?xml version="1.0" standalone="no"?><!DOCTYPE svg PUBLIC "-//W3C//DTD SVG 1.1//EN" "http://www.w3.org/Graphics/SVG/1.1/DTD/svg11.dtd"><svg t="1598519209020" class="icon" viewBox="0 0 1024 1024" version="1.1" xmlns="http://www.w3.org/2000/svg" p-id="5748" xmlns:xlink="http://www.w3.org/1999/xlink" width="200" height="200"><defs><style type="text/css"></style></defs><path d="M 932.48 833.6 v -573.867 h -392.533 v -178.133 h -450.133 v 752 h -67.2 v 75.7333 h 973.867 v -75.7333 h -64 Z m -660.267 0 h -100.267 v -100.267 h 100.267 v 100.267 Z m 0 -186.667 h -100.267 v -100.267 h 100.267 v 100.267 Z m 0 -187.733 h -100.267 v -100.267 h 100.267 v 100.267 Z m 0 -198.4 h -100.267 v -100.267 h 100.267 v 100.267 Z m 183.467 572.8 h -100.267 v -100.267 h 100.267 v 100.267 Z m 0 -186.667 h -100.267 v -100.267 h 100.267 v 100.267 Z m 0 -187.733 h -100.267 v -100.267 h 100.267 v 100.267 Z m 0 -198.4 h -100.267 v -100.267 h 100.267 v 100.267 Z m 408.533 223.573 v 349.227 h -321.067 v -473.6 h 321.067 v 124.373 Z" p-id="5749"></path><path d="M 544.213 450.667 h 100.267 v 100.267 h -100.267 Z M 705.28 450.667 h 100.267 v 100.267 h -100.267 Z M 544.213 645.867 h 100.267 v 100.267 h -100.267 Z M 705.28 645.867 h 100.267 v 100.267 h -100.267 Z" p-id="5750"></path></svg>